<svg xmlns="http://www.w3.org/2000/svg" width="500" height="500" viewBox="0 0 33 33" shape-rendering="crispEdges" role="img" aria-label="Event check-in QR code">
  <rect width="100%" height="100%" fill="#fff"/>
  <metadata data-error-correction="Q">https://google.com</metadata>
  <path fill="#000" d="M4,4h1v1h-1zM5,4h1v1h-1zM6,4h1v1h-1zM7,4h1v1h-1zM8,4h1v1h-1zM9,4h1v1h-1zM10,4h1v1h-1zM12,4h1v1h-1zM14,4h1v1h-1zM15,4h1v1h-1zM16,4h1v1h-1zM17,4h1v1h-1zM18,4h1v1h-1zM19,4h1v1h-1zM22,4h1v1h-1zM23,4h1v1h-1zM24,4h1v1h-1zM25,4h1v1h-1zM26,4h1v1h-1zM27,4h1v1h-1zM28,4h1v1h-1zM4,5h1v1h-1zM10,5h1v1h-1zM12,5h1v1h-1zM13,5h1v1h-1zM17,5h1v1h-1zM18,5h1v1h-1zM19,5h1v1h-1zM20,5h1v1h-1zM22,5h1v1h-1zM28,5h1v1h-1zM4,6h1v1h-1zM6,6h1v1h-1zM7,6h1v1h-1zM8,6h1v1h-1zM10,6h1v1h-1zM12,6h1v1h-1zM13,6h1v1h-1zM15,6h1v1h-1zM16,6h1v1h-1zM19,6h1v1h-1zM22,6h1v1h-1zM24,6h1v1h-1zM25,6h1v1h-1zM26,6h1v1h-1zM28,6h1v1h-1zM4,7h1v1h-1zM6,7h1v1h-1zM7,7h1v1h-1zM8,7h1v1h-1zM10,7h1v1h-1zM12,7h1v1h-1zM17,7h1v1h-1zM22,7h1v1h-1zM24,7h1v1h-1zM25,7h1v1h-1zM26,7h1v1h-1zM28,7h1v1h-1zM4,8h1v1h-1zM6,8h1v1h-1zM7,8h1v1h-1zM8,8h1v1h-1zM10,8h1v1h-1zM12,8h1v1h-1zM13,8h1v1h-1zM14,8h1v1h-1zM15,8h1v1h-1zM16,8h1v1h-1zM17,8h1v1h-1zM18,8h1v1h-1zM19,8h1v1h-1zM22,8h1v1h-1zM24,8h1v1h-1zM25,8h1v1h-1zM26,8h1v1h-1zM28,8h1v1h-1zM4,9h1v1h-1zM10,9h1v1h-1zM15,9h1v1h-1zM18,9h1v1h-1zM19,9h1v1h-1zM20,9h1v1h-1zM22,9h1v1h-1zM28,9h1v1h-1zM4,10h1v1h-1zM5,10h1v1h-1zM6,10h1v1h-1zM7,10h1v1h-1zM8,10h1v1h-1zM9,10h1v1h-1zM10,10h1v1h-1zM12,10h1v1h-1zM14,10h1v1h-1zM16,10h1v1h-1zM18,10h1v1h-1zM20,10h1v1h-1zM22,10h1v1h-1zM23,10h1v1h-1zM24,10h1v1h-1zM25,10h1v1h-1zM26,10h1v1h-1zM27,10h1v1h-1zM28,10h1v1h-1zM12,11h1v1h-1zM5,12h1v1h-1zM6,12h1v1h-1zM8,12h1v1h-1zM10,12h1v1h-1zM11,12h1v1h-1zM13,12h1v1h-1zM14,12h1v1h-1zM15,12h1v1h-1zM16,12h1v1h-1zM20,12h1v1h-1zM22,12h1v1h-1zM24,12h1v1h-1zM25,12h1v1h-1zM26,12h1v1h-1zM27,12h1v1h-1zM28,12h1v1h-1zM4,13h1v1h-1zM6,13h1v1h-1zM12,13h1v1h-1zM14,13h1v1h-1zM16,13h1v1h-1zM17,13h1v1h-1zM20,13h1v1h-1zM21,13h1v1h-1zM22,13h1v1h-1zM28,13h1v1h-1zM7,14h1v1h-1zM8,14h1v1h-1zM9,14h1v1h-1zM10,14h1v1h-1zM11,14h1v1h-1zM14,14h1v1h-1zM16,14h1v1h-1zM18,14h1v1h-1zM20,14h1v1h-1zM21,14h1v1h-1zM23,14h1v1h-1zM26,14h1v1h-1zM27,14h1v1h-1zM28,14h1v1h-1zM5,15h1v1h-1zM6,15h1v1h-1zM7,15h1v1h-1zM13,15h1v1h-1zM16,15h1v1h-1zM17,15h1v1h-1zM18,15h1v1h-1zM20,15h1v1h-1zM22,15h1v1h-1zM27,15h1v1h-1zM7,16h1v1h-1zM8,16h1v1h-1zM9,16h1v1h-1zM10,16h1v1h-1zM11,16h1v1h-1zM12,16h1v1h-1zM14,16h1v1h-1zM15,16h1v1h-1zM16,16h1v1h-1zM18,16h1v1h-1zM19,16h1v1h-1zM20,16h1v1h-1zM21,16h1v1h-1zM22,16h1v1h-1zM25,16h1v1h-1zM27,16h1v1h-1zM28,16h1v1h-1zM5,17h1v1h-1zM6,17h1v1h-1zM7,17h1v1h-1zM8,17h1v1h-1zM11,17h1v1h-1zM13,17h1v1h-1zM15,17h1v1h-1zM16,17h1v1h-1zM18,17h1v1h-1zM21,17h1v1h-1zM22,17h1v1h-1zM25,17h1v1h-1zM28,17h1v1h-1zM4,18h1v1h-1zM8,18h1v1h-1zM10,18h1v1h-1zM11,18h1v1h-1zM12,18h1v1h-1zM13,18h1v1h-1zM15,18h1v1h-1zM18,18h1v1h-1zM21,18h1v1h-1zM23,18h1v1h-1zM26,18h1v1h-1zM27,18h1v1h-1zM28,18h1v1h-1zM5,19h1v1h-1zM8,19h1v1h-1zM9,19h1v1h-1zM12,19h1v1h-1zM13,19h1v1h-1zM14,19h1v1h-1zM15,19h1v1h-1zM16,19h1v1h-1zM17,19h1v1h-1zM18,19h1v1h-1zM19,19h1v1h-1zM20,19h1v1h-1zM22,19h1v1h-1zM24,19h1v1h-1zM27,19h1v1h-1zM4,20h1v1h-1zM8,20h1v1h-1zM9,20h1v1h-1zM10,20h1v1h-1zM11,20h1v1h-1zM12,20h1v1h-1zM13,20h1v1h-1zM16,20h1v1h-1zM18,20h1v1h-1zM20,20h1v1h-1zM21,20h1v1h-1zM22,20h1v1h-1zM23,20h1v1h-1zM24,20h1v1h-1zM25,20h1v1h-1zM12,21h1v1h-1zM15,21h1v1h-1zM16,21h1v1h-1zM19,21h1v1h-1zM20,21h1v1h-1zM24,21h1v1h-1zM25,21h1v1h-1zM27,21h1v1h-1zM28,21h1v1h-1zM4,22h1v1h-1zM5,22h1v1h-1zM6,22h1v1h-1zM7,22h1v1h-1zM8,22h1v1h-1zM9,22h1v1h-1zM10,22h1v1h-1zM12,22h1v1h-1zM13,22h1v1h-1zM16,22h1v1h-1zM17,22h1v1h-1zM19,22h1v1h-1zM20,22h1v1h-1zM22,22h1v1h-1zM24,22h1v1h-1zM25,22h1v1h-1zM27,22h1v1h-1zM28,22h1v1h-1zM4,23h1v1h-1zM10,23h1v1h-1zM14,23h1v1h-1zM15,23h1v1h-1zM18,23h1v1h-1zM20,23h1v1h-1zM24,23h1v1h-1zM25,23h1v1h-1zM27,23h1v1h-1zM28,23h1v1h-1zM4,24h1v1h-1zM6,24h1v1h-1zM7,24h1v1h-1zM8,24h1v1h-1zM10,24h1v1h-1zM12,24h1v1h-1zM16,24h1v1h-1zM17,24h1v1h-1zM18,24h1v1h-1zM20,24h1v1h-1zM21,24h1v1h-1zM22,24h1v1h-1zM23,24h1v1h-1zM24,24h1v1h-1zM25,24h1v1h-1zM28,24h1v1h-1zM4,25h1v1h-1zM6,25h1v1h-1zM7,25h1v1h-1zM8,25h1v1h-1zM10,25h1v1h-1zM17,25h1v1h-1zM18,25h1v1h-1zM19,25h1v1h-1zM23,25h1v1h-1zM24,25h1v1h-1zM25,25h1v1h-1zM26,25h1v1h-1zM4,26h1v1h-1zM6,26h1v1h-1zM7,26h1v1h-1zM8,26h1v1h-1zM10,26h1v1h-1zM12,26h1v1h-1zM14,26h1v1h-1zM15,26h1v1h-1zM16,26h1v1h-1zM18,26h1v1h-1zM19,26h1v1h-1zM24,26h1v1h-1zM28,26h1v1h-1zM4,27h1v1h-1zM10,27h1v1h-1zM12,27h1v1h-1zM15,27h1v1h-1zM16,27h1v1h-1zM17,27h1v1h-1zM18,27h1v1h-1zM19,27h1v1h-1zM20,27h1v1h-1zM24,27h1v1h-1zM25,27h1v1h-1zM27,27h1v1h-1zM4,28h1v1h-1zM5,28h1v1h-1zM6,28h1v1h-1zM7,28h1v1h-1zM8,28h1v1h-1zM9,28h1v1h-1zM10,28h1v1h-1zM13,28h1v1h-1zM17,28h1v1h-1zM19,28h1v1h-1zM20,28h1v1h-1zM21,28h1v1h-1zM23,28h1v1h-1zM27,28h1v1h-1zM28,28h1v1h-1z"/>
</svg>